<?xml version="1.0" standalone="no"?>
<!DOCTYPE svg PUBLIC "-//W3C//DTD SVG 20010904//EN"
 "http://www.w3.org/TR/2001/REC-SVG-20010904/DTD/svg10.dtd">
<svg version="1.0" xmlns="http://www.w3.org/2000/svg"
 width="600.000000pt" height="600.000000pt" viewBox="0 0 600.000000 600.000000"
 preserveAspectRatio="xMidYMid meet">
<metadata>
Created by potrace 1.16, written by Peter Selinger 2001-2019
</metadata>
<g transform="translate(0.000000,600.000000) scale(0.100000,-0.100000)"
fill="#000000" stroke="none">
<path d="M2460 4632 c-289 -164 -662 -376 -830 -471 -168 -96 -311 -178 -317
-183 -10 -8 -13 -215 -13 -973 l0 -963 93 -53 c50 -29 164 -94 252 -145 88
-51 416 -239 729 -419 313 -180 577 -332 588 -338 24 -15 -72 -68 1343 737
l370 211 3 966 2 966 -287 166 c-159 90 -466 267 -683 392 -657 378 -705 405
-715 405 -6 0 -246 -134 -535 -298z m-729 -1412 c86 -24 153 -121 166 -240 l6
-60 -221 0 c-121 0 -223 -4 -226 -8 -9 -14 15 -101 37 -133 32 -47 69 -71 120
-76 93 -11 164 24 193 94 12 28 19 33 49 33 46 0 46 -21 3 -86 -63 -94 -197
-130 -321 -88 -157 53 -210 322 -94 476 61 82 179 118 288 88z m1030 0 c19 -5
53 -25 76 -45 118 -100 123 -355 10 -468 -89 -90 -257 -91 -349 -4 l-28 26 0
-149 0 -150 -35 0 -35 0 0 396 0 395 33 -3 c30 -3 32 -6 35 -46 l3 -43 20 25
c10 13 42 36 71 50 56 28 133 34 199 16z m469 -25 c0 -30 -3 -35 -22 -35 -41
-1 -104 -37 -126 -72 -28 -46 -42 -143 -42 -305 l0 -133 -30 0 -30 0 0 285 0
285 30 0 c27 0 30 -3 31 -32 1 -18 1 -40 0 -48 -1 -8 13 2 31 22 40 45 82 68
126 68 30 0 32 -2 32 -35z m347 10 c79 -36 120 -107 138 -237 l6 -48 -227 0
-227 0 7 -47 c15 -113 95 -179 205 -171 69 5 113 32 141 89 18 34 25 39 55 39
40 0 42 -7 16 -58 -49 -96 -126 -136 -249 -131 -103 5 -160 38 -206 119 -27
48 -31 66 -34 150 -3 78 0 105 17 150 25 66 90 135 147 155 63 23 151 19 211
-10z m486 1 c39 -19 83 -81 89 -126 3 -21 -1 -25 -27 -28 -27 -3 -32 2 -50 40
-25 53 -70 78 -141 78 -74 0 -118 -31 -122 -87 -4 -58 30 -84 150 -113 118
-28 167 -55 193 -103 18 -32 25 -37 57 -37 32 0 37 -4 43 -28 7 -34 48 -80 82
-93 13 -5 50 -9 81 -9 95 0 152 52 137 122 -9 40 -41 58 -158 85 -160 38 -207
76 -207 171 0 90 84 152 205 152 111 -1 181 -43 210 -127 16 -44 9 -56 -31
-51 -22 2 -30 10 -36 35 -14 53 -60 78 -144 78 -58 0 -76 -4 -94 -20 -50 -45
-46 -105 8 -137 15 -9 66 -26 112 -38 165 -42 210 -78 210 -169 0 -97 -71
-151 -207 -159 -122 -7 -185 24 -228 113 -20 41 -24 46 -25 24 0 -38 -39 -89
-85 -113 -29 -15 -63 -22 -127 -24 -78 -4 -91 -1 -135 22 -55 30 -91 77 -100
130 -6 36 -5 36 29 36 29 0 36 -4 46 -33 7 -18 26 -46 42 -62 27 -26 39 -30
103 -33 63 -3 77 -1 107 20 62 42 66 112 7 148 -17 11 -56 24 -87 30 -112 22
-161 41 -198 75 -35 31 -37 37 -37 92 0 71 28 116 89 144 53 25 183 22 239 -5z
m-2013 -98 c41 -59 78 -108 81 -108 3 0 41 50 84 110 78 108 80 110 118 110
50 0 50 -2 -63 -149 -49 -65 -90 -122 -90 -127 0 -5 45 -70 100 -144 55 -74
100 -138 100 -142 0 -5 -17 -8 -37 -8 -37 0 -40 4 -122 120 -56 78 -88 116
-95 110 -6 -5 -47 -58 -91 -119 -77 -107 -81 -111 -117 -111 -21 0 -38 3 -38
7 0 3 46 67 102 142 56 74 101 140 101 146 0 6 -41 66 -91 133 -51 67 -92 126
-92 132 0 7 15 10 37 8 35 -3 42 -10 113 -110z"/>
<path d="M1555 3146 c-40 -24 -79 -80 -95 -136 -7 -25 -6 -30 8 -30 9 -1 94
-1 187 -2 l170 -1 -3 34 c-13 126 -158 200 -267 135z"/>
<path d="M2584 3156 c-40 -18 -88 -77 -103 -125 -6 -21 -11 -64 -11 -96 0 -75
16 -125 53 -171 37 -45 81 -64 144 -64 115 1 186 92 185 240 0 100 -26 159
-84 198 -48 31 -136 40 -184 18z"/>
<path d="M3385 3154 c-59 -30 -100 -88 -107 -149 l-3 -29 179 1 c98 1 180 4
183 7 3 2 2 23 -2 46 -8 49 -55 107 -102 126 -43 19 -111 17 -148 -2z"/>
</g>
</svg>
